{
  "accessors": [
    {
      "bufferView": 2,
      "componentType": 5126,
      "count": 6144,
      "max": [
        0.84192001819610596,
        0.90824997425079346,
        0.83907002210617065
      ],
      "min": [
        -0.84192001819610596,
        -0.90824997425079346,
        -0.61710000038146973
      ],
      "type": "VEC3"
    },
    {
      "bufferView": 2,
      "byteOffset": 73728,
      "componentType": 5126,
      "count": 6144,
      "max": [
        0.99805784225463867,
        0.99762511253356934,
        0.99949675798416138
      ],
      "min": [
        -0.99805784225463867,
        -0.99852889776229858,
        -0.99996429681777954
      ],
      "type": "VEC3"
    },
    {
      "bufferView": 3,
      "componentType": 5126,
      "count": 6144,
      "max": [
        0.99993228912353516,
        0.99977272748947144,
        0.8239021897315979,
        1
      ],
      "min": [
        -0.99993228912353516,
        -0.12673155963420868,
        -0.85823428630828857,
        -1
      ],
      "type": "VEC4"
    },
    {
      "bufferView": 1,
      "componentType": 5126,
      "count": 6144,
      "max": [
        0.93936002254486084,
        1
      ],
      "min": [
        0.037829998880624771,
        0
      ],
      "type": "VEC2"
    },
    {
      "bufferView": 0,
      "componentType": 5125,
      "count": 9216,
      "max": [
        6143
      ],
      "min": [
        0
      ],
      "type": "SCALAR"
    },
    {
      "bufferView": 2,
      "byteOffset": 147456,
      "componentType": 5126,
      "count": 257,
      "max": [
        4.2413902282714844,
        4.3310098648071289,
        1
      ],
      "min": [
        -1,
        -1,
        -6.3517899513244629
      ],
      "type": "VEC3"
    },
    {
      "bufferView": 2,
      "byteOffset": 150540,
      "componentType": 5126,
      "count": 257,
      "max": [
        0.99858027696609497,
        0.99617576599121094,
        0.8973163366317749
      ],
      "min": [
        -0.98308295011520386,
        -0.99324339628219604,
        -0.98839426040649414
      ],
      "type": "VEC3"
    },
    {
      "bufferView": 1,
      "byteOffset": 49152,
      "componentType": 5126,
      "count": 257,
      "max": [
        0,
        0
      ],
      "min": [
        0,
        0
      ],
      "type": "VEC2"
    },
    {
      "bufferView": 0,
      "byteOffset": 36864,
      "componentType": 5125,
      "count": 1488,
      "max": [
        256
      ],
      "min": [
        0
      ],
      "type": "SCALAR"
    },
    {
      "bufferView": 2,
      "byteOffset": 153624,
      "componentType": 5126,
      "count": 257,
      "max": [
        4.0673999786376953,
        4.2012200355529785,
        1.2884900569915771
      ],
      "min": [
        -1,
        -1,
        -6.1033201217651367
      ],
      "type": "VEC3"
    },
    {
      "bufferView": 2,
      "byteOffset": 156708,
      "componentType": 5126,
      "count": 257,
      "max": [
        0.98737931251525879,
        0.99584347009658813,
        0.98839426040649414
      ],
      "min": [
        -0.99858027696609497,
        -0.99617576599121094,
        -0.93138730525970459
      ],
      "type": "VEC3"
    },
    {
      "bufferView": 0,
      "byteOffset": 42816,
      "componentType": 5125,
      "count": 1488,
      "max": [
        256
      ],
      "min": [
        0
      ],
      "type": "SCALAR"
    },
    {
      "bufferView": 2,
      "byteOffset": 159792,
      "componentType": 5126,
      "count": 6144,
      "max": [
        0.84192001819610596,
        0.90824997425079346,
        0.8296700119972229
      ],
      "min": [
        -0.84192001819610596,
        -0.90824997425079346,
        -0.63191002607345581
      ],
      "type": "VEC3"
    },
    {
      "bufferView": 2,
      "byteOffset": 233520,
      "componentType": 5126,
      "count": 6144,
      "max": [
        0.99803143739700317,
        0.99848157167434692,
        0.99996060132980347
      ],
      "min": [
        -0.99803143739700317,
        -0.99758702516555786,
        -0.99949568510055542
      ],
      "type": "VEC3"
    },
    {
      "bufferView": 0,
      "byteOffset": 48768,
      "componentType": 5125,
      "count": 9216,
      "max": [
        6143
      ],
      "min": [
        0
      ],
      "type": "SCALAR"
    }
  ],
  "asset": {
    "extras": {
      "author": "Shabbba (https://sketchfab.com/dan2004)",
      "license": "CC-BY-4.0 (http://creativecommons.org/licenses/by/4.0/)",
      "source": "https://sketchfab.com/models/36ac695d82ca44babdf3339a125e72a5",
      "title": "Cat"
    },
    "generator": "Sketchfab-4.12.0",
    "version": "2.0"
  },
  "bufferViews": [
    {
      "buffer": 0,
      "byteLength": 85632,
      "byteOffset": 0,
      "name": "floatBufferViews",
      "target": 34963
    },
    {
      "buffer": 0,
      "byteLength": 51208,
      "byteOffset": 85632,
      "byteStride": 8,
      "name": "floatBufferViews",
      "target": 34962
    },
    {
      "buffer": 0,
      "byteLength": 307248,
      "byteOffset": 136840,
      "byteStride": 12,
      "name": "floatBufferViews",
      "target": 34962
    },
    {
      "buffer": 0,
      "byteLength": 98304,
      "byteOffset": 444088,
      "byteStride": 16,
      "name": "floatBufferViews",
      "target": 34962
    }
  ],
  "buffers": [
    {
      "byteLength": 542392,
      "uri": "scene.bin"
    }
  ],
  "extensionsRequired": [
    "KHR_materials_pbrSpecularGlossiness"
  ],
  "extensionsUsed": [
    "KHR_materials_pbrSpecularGlossiness"
  ],
  "images": [
    {
      "uri": "textures/Material_emissive.png"
    },
    {
      "uri": "textures/Material_diffuse.png"
    }
  ],
  "materials": [
    {
      "doubleSided": false,
      "emissiveFactor": [
        0,
        0,
        0
      ],
      "extensions": {
        "KHR_materials_pbrSpecularGlossiness": {
          "diffuseFactor": [
            0,
            0,
            0,
            1
          ],
          "glossinessFactor": 1,
          "specularFactor": [
            0,
            0,
            0
          ]
        }
      },
      "name": "Material.001"
    },
    {
      "doubleSided": true,
      "emissiveFactor": [
        1,
        1,
        1
      ],
      "emissiveTexture": {
        "index": 0,
        "texCoord": 0
      },
      "extensions": {
        "KHR_materials_pbrSpecularGlossiness": {
          "diffuseFactor": [
            1,
            1,
            1,
            1
          ],
          "diffuseTexture": {
            "index": 1,
            "texCoord": 0
          },
          "glossinessFactor": 0,
          "specularFactor": [
            0,
            0,
            0
          ]
        }
      },
      "name": "Material"
    }
  ],
  "meshes": [
    {
      "name": "Cube_0",
      "primitives": [
        {
          "attributes": {
            "NORMAL": 1,
            "POSITION": 0,
            "TANGENT": 2,
            "TEXCOORD_0": 3
          },
          "indices": 4,
          "material": 1,
          "mode": 4
        }
      ]
    },
    {
      "name": "Cylinder_0",
      "primitives": [
        {
          "attributes": {
            "NORMAL": 6,
            "POSITION": 5,
            "TEXCOORD_0": 7
          },
          "indices": 8,
          "material": 1,
          "mode": 4
        }
      ]
    },
    {
      "name": "Cylinder.001_0",
      "primitives": [
        {
          "attributes": {
            "NORMAL": 10,
            "POSITION": 9
          },
          "indices": 11,
          "material": 0,
          "mode": 4
        }
      ]
    },
    {
      "name": "Cube.001_0",
      "primitives": [
        {
          "attributes": {
            "NORMAL": 13,
            "POSITION": 12
          },
          "indices": 14,
          "material": 0,
          "mode": 4
        }
      ]
    }
  ],
  "nodes": [
    {
      "children": [
        1
      ],
      "name": "RootNode (gltf orientation matrix)",
      "rotation": [
        -0.70710678118654746,
        -0,
        -0,
        0.70710678118654757
      ]
    },
    {
      "children": [
        2
      ],
      "name": "RootNode (model correction matrix)"
    },
    {
      "children": [
        3,
        5,
        7,
        9
      ],
      "name": "Root"
    },
    {
      "children": [
        4
      ],
      "name": "Cube"
    },
    {
      "mesh": 0,
      "name": "Cube_0"
    },
    {
      "children": [
        6
      ],
      "matrix": [
        0.088810000000000014,
        0,
        0,
        0,
        0,
        -0,
        0.088810000000000014,
        0,
        0,
        -0.088810000000000014,
        -0,
        0,
        0,
        0.97714000000000001,
        0,
        1
      ],
      "name": "Cylinder"
    },
    {
      "mesh": 1,
      "name": "Cylinder_0"
    },
    {
      "children": [
        8
      ],
      "matrix": [
        0.094480000000000022,
        0,
        0,
        0,
        0,
        -0,
        0.094480000000000022,
        0,
        0,
        -0.094480000000000022,
        -0,
        0,
        0,
        0.97714000000000001,
        0,
        1
      ],
      "name": "Cylinder.001"
    },
    {
      "mesh": 2,
      "name": "Cylinder.001_0"
    },
    {
      "children": [
        10
      ],
      "matrix": [
        1.0305599999999999,
        0,
        0,
        0,
        0,
        1.0305599999999999,
        0,
        0,
        0,
        0,
        1.0305599999999999,
        0,
        0,
        0,
        0,
        1
      ],
      "name": "Cube.001"
    },
    {
      "mesh": 3,
      "name": "Cube.001_0"
    }
  ],
  "samplers": [
    {
      "magFilter": 9729,
      "minFilter": 9987,
      "wrapS": 10497,
      "wrapT": 10497
    }
  ],
  "scene": 0,
  "scenes": [
    {
      "name": "OSG_Scene",
      "nodes": [
        0
      ]
    }
  ],
  "textures": [
    {
      "sampler": 0,
      "source": 0
    },
    {
      "sampler": 0,
      "source": 1
    }
  ]
}

