{
  "accessors": [
    {
      "bufferView": 2,
      "componentType": 5126,
      "count": 1382,
      "max": [
        0.84867602586746216,
        0.21360400319099426,
        0.45066198706626892
      ],
      "min": [
        -0.99828499555587769,
        -0.19036400318145752,
        -0.43976199626922607
      ],
      "type": "VEC3"
    },
    {
      "bufferView": 2,
      "byteOffset": 16584,
      "componentType": 5126,
      "count": 1382,
      "max": [
        0.99758040904998779,
        0.99988275766372681,
        0.99975639581680298
      ],
      "min": [
        -0.99991488456726074,
        -0.99977731704711914,
        -0.99971479177474976
      ],
      "type": "VEC3"
    },
    {
      "bufferView": 3,
      "componentType": 5126,
      "count": 1382,
      "max": [
        0.99964946508407593,
        0.99996089935302734,
        0.99991947412490845,
        1
      ],
      "min": [
        -0.99980849027633667,
        -0.99995625019073486,
        -0.99991941452026367,
        -1
      ],
      "type": "VEC4"
    },
    {
      "bufferView": 1,
      "componentType": 5126,
      "count": 1382,
      "max": [
        1.1520500183105469,
        0.99501997232437134
      ],
      "min": [
        0.00043486998765729368,
        -0.95432800054550171
      ],
      "type": "VEC2"
    },
    {
      "bufferView": 0,
      "componentType": 5125,
      "count": 4650,
      "max": [
        1381
      ],
      "min": [
        0
      ],
      "type": "SCALAR"
    }
  ],
  "asset": {
    "extras": {
      "author": "Luke Steel (https://sketchfab.com/luke.steel)",
      "license": "CC-BY-4.0 (http://creativecommons.org/licenses/by/4.0/)",
      "source": "https://sketchfab.com/models/45dbf9b2a647430fa81dd08f2276bdb9",
      "title": "Claude"
    },
    "generator": "Sketchfab-3.18.5",
    "version": "2.0"
  },
  "bufferViews": [
    {
      "buffer": 0,
      "byteLength": 18600,
      "byteOffset": 0,
      "name": "floatBufferViews",
      "target": 34963
    },
    {
      "buffer": 0,
      "byteLength": 11056,
      "byteOffset": 18600,
      "byteStride": 8,
      "name": "floatBufferViews",
      "target": 34962
    },
    {
      "buffer": 0,
      "byteLength": 33168,
      "byteOffset": 29656,
      "byteStride": 12,
      "name": "floatBufferViews",
      "target": 34962
    },
    {
      "buffer": 0,
      "byteLength": 22112,
      "byteOffset": 62824,
      "byteStride": 16,
      "name": "floatBufferViews",
      "target": 34962
    }
  ],
  "buffers": [
    {
      "byteLength": 84936,
      "uri": "scene.bin"
    }
  ],
  "images": [
    {
      "uri": "textures/playa5nu_baseColor.png"
    }
  ],
  "materials": [
    {
      "doubleSided": true,
      "emissiveFactor": [
        0,
        0,
        0
      ],
      "name": "playa5nu",
      "pbrMetallicRoughness": {
        "baseColorFactor": [
          1,
          1,
          1,
          1
        ],
        "baseColorTexture": {
          "index": 0,
          "texCoord": 0
        },
        "metallicFactor": 0,
        "roughnessFactor": 1
      }
    }
  ],
  "meshes": [
    {
      "primitives": [
        {
          "attributes": {
            "NORMAL": 1,
            "POSITION": 0,
            "TANGENT": 2,
            "TEXCOORD_0": 3
          },
          "indices": 4,
          "material": 0,
          "mode": 4
        }
      ]
    }
  ],
  "nodes": [
    {
      "children": [
        1
      ],
      "name": "RootNode (gltf orientation matrix)",
      "rotation": [
        -0.70710678118654746,
        -0,
        -0,
        0.70710678118654757
      ]
    },
    {
      "children": [
        2
      ],
      "matrix": [
        0,
        0,
        1,
        0,
        0,
        -1,
        0,
        0,
        1,
        0,
        0,
        0,
        -0.080254748463630676,
        0.023239254951477051,
        0.080254748463630676,
        1
      ],
      "name": "RootNode (model correction matrix)"
    },
    {
      "children": [
        3
      ],
      "name": "claude.obj.cleaner.materialmerger.gles"
    },
    {
      "mesh": 0,
      "name": ""
    }
  ],
  "samplers": [
    {
      "magFilter": 9729,
      "minFilter": 9987,
      "wrapS": 10497,
      "wrapT": 10497
    }
  ],
  "scene": 0,
  "scenes": [
    {
      "name": "OSG_Scene",
      "nodes": [
        0
      ]
    }
  ],
  "textures": [
    {
      "sampler": 0,
      "source": 0
    }
  ]
}

