{
  "accessors": [
    {
      "bufferView": 2,
      "componentType": 5126,
      "count": 5044,
      "max": [
        0.018501600250601768,
        0.02392129972577095,
        0.12512899935245514
      ],
      "min": [
        -0.033031798899173737,
        -0.0081941103562712669,
        0.029728300869464874
      ],
      "type": "VEC3"
    },
    {
      "bufferView": 2,
      "byteOffset": 60528,
      "componentType": 5126,
      "count": 5044,
      "max": [
        0.99874246120452881,
        0.99994194507598877,
        0.99990683794021606
      ],
      "min": [
        -0.99993503093719482,
        -0.99998939037322998,
        -0.99979472160339355
      ],
      "type": "VEC3"
    },
    {
      "bufferView": 3,
      "componentType": 5126,
      "count": 5044,
      "max": [
        0.99999940395355225,
        0.99999856948852539,
        0.99999725818634033,
        1
      ],
      "min": [
        -0.97805088758468628,
        -0.99999701976776123,
        -0.99999803304672241,
        -1
      ],
      "type": "VEC4"
    },
    {
      "bufferView": 3,
      "byteOffset": 80704,
      "componentType": 5126,
      "count": 5044,
      "max": [
        1,
        1,
        1,
        1
      ],
      "min": [
        1,
        1,
        1,
        1
      ],
      "type": "VEC4"
    },
    {
      "bufferView": 1,
      "componentType": 5126,
      "count": 5044,
      "max": [
        0.99089998006820679,
        0.99839997291564941
      ],
      "min": [
        0.00093749997904524207,
        0.00093749997904524207
      ],
      "type": "VEC2"
    },
    {
      "bufferView": 0,
      "componentType": 5125,
      "count": 18504,
      "max": [
        5043
      ],
      "min": [
        0
      ],
      "type": "SCALAR"
    }
  ],
  "asset": {
    "extras": {
      "author": "León Felipe (https://sketchfab.com/Entomoraion.Mushishi)",
      "license": "CC-BY-4.0 (http://creativecommons.org/licenses/by/4.0/)",
      "source": "https://sketchfab.com/models/c93ed7d16ab24901a5e22ca644700eff",
      "title": "Garra Coco"
    },
    "generator": "Sketchfab-3.20.7",
    "version": "2.0"
  },
  "bufferViews": [
    {
      "buffer": 0,
      "byteLength": 74016,
      "byteOffset": 0,
      "name": "floatBufferViews",
      "target": 34963
    },
    {
      "buffer": 0,
      "byteLength": 40352,
      "byteOffset": 74016,
      "byteStride": 8,
      "name": "floatBufferViews",
      "target": 34962
    },
    {
      "buffer": 0,
      "byteLength": 121056,
      "byteOffset": 114368,
      "byteStride": 12,
      "name": "floatBufferViews",
      "target": 34962
    },
    {
      "buffer": 0,
      "byteLength": 161408,
      "byteOffset": 235424,
      "byteStride": 16,
      "name": "floatBufferViews",
      "target": 34962
    }
  ],
  "buffers": [
    {
      "byteLength": 396832,
      "uri": "scene.bin"
    }
  ],
  "images": [
    {
      "uri": "textures/material_0_baseColor.jpg"
    }
  ],
  "materials": [
    {
      "doubleSided": true,
      "emissiveFactor": [
        0,
        0,
        0
      ],
      "name": "material_0",
      "pbrMetallicRoughness": {
        "baseColorFactor": [
          1,
          1,
          1,
          1
        ],
        "baseColorTexture": {
          "index": 0,
          "texCoord": 0
        },
        "metallicFactor": 0,
        "roughnessFactor": 0.59999999999999998
      }
    }
  ],
  "meshes": [
    {
      "primitives": [
        {
          "attributes": {
            "COLOR_0": 3,
            "NORMAL": 1,
            "POSITION": 0,
            "TANGENT": 2,
            "TEXCOORD_0": 4
          },
          "indices": 5,
          "material": 0,
          "mode": 4
        }
      ]
    }
  ],
  "nodes": [
    {
      "children": [
        1
      ],
      "name": "RootNode (gltf orientation matrix)",
      "rotation": [
        -0.70710678118654746,
        -0,
        -0,
        0.70710678118654757
      ]
    },
    {
      "children": [
        2
      ],
      "matrix": [
        0,
        0,
        1,
        0,
        0,
        -1,
        0,
        0,
        1,
        0,
        0,
        0,
        -0.06958780437707901,
        0.01449844054877758,
        0.06958780437707901,
        1
      ],
      "name": "RootNode (model correction matrix)"
    },
    {
      "children": [
        3
      ],
      "matrix": [
        1,
        0,
        0,
        0,
        0,
        0,
        1,
        0,
        0,
        -1,
        0,
        0,
        0,
        0,
        0,
        1
      ],
      "name": "b3b4932638204a42a9d546ec3c187191.wrl.cleaner.materialmerger.gles"
    },
    {
      "children": [
        4
      ],
      "name": "ORITGT"
    },
    {
      "children": [
        5
      ],
      "matrix": [
        0.00022804737091064453,
        -0.00022804737091064453,
        1,
        0,
        1,
        0.00022804737091064453,
        -0.00022804737091064453,
        0,
        -0.00022804737091064453,
        1,
        0.00022804737091064453,
        0,
        0,
        0,
        0,
        1
      ],
      "name": ""
    },
    {
      "mesh": 0,
      "name": ""
    }
  ],
  "samplers": [
    {
      "magFilter": 9729,
      "minFilter": 9987,
      "wrapS": 10497,
      "wrapT": 10497
    }
  ],
  "scene": 0,
  "scenes": [
    {
      "name": "OSG_Scene",
      "nodes": [
        0
      ]
    }
  ],
  "textures": [
    {
      "sampler": 0,
      "source": 0
    }
  ]
}

