{
  "accessors": [
    {
      "bufferView": 1,
      "componentType": 5126,
      "count": 1970,
      "max": [
        38.615669250488281,
        48.232471466064453,
        15.130399703979492
      ],
      "min": [
        20.590200424194336,
        30.023550033569336,
        3.152479887008667
      ],
      "type": "VEC3"
    },
    {
      "bufferView": 1,
      "byteOffset": 23640,
      "componentType": 5126,
      "count": 1970,
      "max": [
        0.80916661024093628,
        0.80101484060287476,
        1
      ],
      "min": [
        -0.80916661024093628,
        -0.80101484060287476,
        -1
      ],
      "type": "VEC3"
    },
    {
      "bufferView": 0,
      "componentType": 5125,
      "count": 4200,
      "max": [
        1969
      ],
      "min": [
        0
      ],
      "type": "SCALAR"
    }
  ],
  "asset": {
    "extras": {
      "author": "Andrei Tabacariu (AnT3) (https://sketchfab.com/andrei.vaslui2000)",
      "license": "CC-BY-4.0 (http://creativecommons.org/licenses/by/4.0/)",
      "source": "https://sketchfab.com/models/3a9dfff4734249d99c62eb925ed88080",
      "title": "Diamond"
    },
    "generator": "Sketchfab-3.54.8-rc1",
    "version": "2.0"
  },
  "bufferViews": [
    {
      "buffer": 0,
      "byteLength": 16800,
      "byteOffset": 0,
      "name": "floatBufferViews",
      "target": 34963
    },
    {
      "buffer": 0,
      "byteLength": 47280,
      "byteOffset": 16800,
      "byteStride": 12,
      "name": "floatBufferViews",
      "target": 34962
    }
  ],
  "buffers": [
    {
      "byteLength": 64080,
      "uri": "scene.bin"
    }
  ],
  "materials": [
    {
      "alphaMode": "BLEND",
      "doubleSided": false,
      "emissiveFactor": [
        0,
        0,
        0
      ],
      "name": "Translucent_Glass_Green_Dark",
      "pbrMetallicRoughness": {
        "baseColorFactor": [
          0.031474436500000001,
          1,
          0,
          0.80000000000000004
        ],
        "metallicFactor": 1,
        "roughnessFactor": 0
      }
    }
  ],
  "meshes": [
    {
      "name": "Material2",
      "primitives": [
        {
          "attributes": {
            "NORMAL": 1,
            "POSITION": 0
          },
          "indices": 2,
          "material": 0,
          "mode": 4
        }
      ]
    }
  ],
  "nodes": [
    {
      "children": [
        1
      ],
      "name": "RootNode (gltf orientation matrix)",
      "rotation": [
        -0.70710678118654746,
        -0,
        -0,
        0.70710678118654757
      ]
    },
    {
      "children": [
        2
      ],
      "name": "RootNode (model correction matrix)"
    },
    {
      "children": [
        3
      ],
      "name": "Collada visual scene group"
    },
    {
      "children": [
        4
      ],
      "name": "SketchUp"
    },
    {
      "mesh": 0,
      "name": "Material2"
    }
  ],
  "scene": 0,
  "scenes": [
    {
      "name": "OSG_Scene",
      "nodes": [
        0
      ]
    }
  ]
}

