{
  "accessors": [
    {
      "bufferView": 2,
      "componentType": 5126,
      "count": 249,
      "max": [
        84.337615966796875,
        41.839622497558594,
        3.731755256652832
      ],
      "min": [
        24.754344940185547,
        -22.126541137695312,
        -42.002147674560547
      ],
      "type": "VEC3"
    },
    {
      "bufferView": 2,
      "byteOffset": 2988,
      "componentType": 5126,
      "count": 249,
      "max": [
        0.97431325912475586,
        0.99339962005615234,
        1
      ],
      "min": [
        -0.98113816976547241,
        -0.99971312284469604,
        -1
      ],
      "type": "VEC3"
    },
    {
      "bufferView": 3,
      "componentType": 5126,
      "count": 249,
      "max": [
        0.99999481439590454,
        0.99997204542160034,
        0.95757365226745605,
        1
      ],
      "min": [
        -0.99951452016830444,
        -0.99926847219467163,
        -0.99282163381576538,
        1
      ],
      "type": "VEC4"
    },
    {
      "bufferView": 1,
      "componentType": 5126,
      "count": 249,
      "max": [
        0.99950003623962402,
        0.9907304048538208
      ],
      "min": [
        0.00050000002374872565,
        0.00050000002374872565
      ],
      "type": "VEC2"
    },
    {
      "bufferView": 0,
      "componentType": 5125,
      "count": 1260,
      "max": [
        248
      ],
      "min": [
        0
      ],
      "type": "SCALAR"
    }
  ],
  "asset": {
    "extras": {
      "author": "alissvetlana (https://sketchfab.com/alissvetlana)",
      "license": "CC-BY-4.0 (http://creativecommons.org/licenses/by/4.0/)",
      "source": "https://sketchfab.com/models/a7f54e87bea94730b4a1827ec1f770df",
      "title": "hat"
    },
    "generator": "Sketchfab-3.31.2",
    "version": "2.0"
  },
  "bufferViews": [
    {
      "buffer": 0,
      "byteLength": 5040,
      "byteOffset": 0,
      "name": "floatBufferViews",
      "target": 34963
    },
    {
      "buffer": 0,
      "byteLength": 1992,
      "byteOffset": 5040,
      "byteStride": 8,
      "name": "floatBufferViews",
      "target": 34962
    },
    {
      "buffer": 0,
      "byteLength": 5976,
      "byteOffset": 7032,
      "byteStride": 12,
      "name": "floatBufferViews",
      "target": 34962
    },
    {
      "buffer": 0,
      "byteLength": 3984,
      "byteOffset": 13008,
      "byteStride": 16,
      "name": "floatBufferViews",
      "target": 34962
    }
  ],
  "buffers": [
    {
      "byteLength": 16992,
      "uri": "scene.bin"
    }
  ],
  "images": [
    {
      "uri": "textures/zaaadefault_baseColor.png"
    }
  ],
  "materials": [
    {
      "doubleSided": true,
      "emissiveFactor": [
        0,
        0,
        0
      ],
      "name": "zaaadefault",
      "pbrMetallicRoughness": {
        "baseColorFactor": [
          1,
          1,
          1,
          1
        ],
        "baseColorTexture": {
          "index": 0,
          "texCoord": 0
        },
        "metallicFactor": 0,
        "roughnessFactor": 0.93730945119999998
      }
    }
  ],
  "meshes": [
    {
      "name": "GeoSphere001__zaaadefault_0",
      "primitives": [
        {
          "attributes": {
            "NORMAL": 1,
            "POSITION": 0,
            "TANGENT": 2,
            "TEXCOORD_0": 3
          },
          "indices": 4,
          "material": 0,
          "mode": 4
        }
      ]
    }
  ],
  "nodes": [
    {
      "children": [
        1
      ],
      "name": "RootNode (gltf orientation matrix)",
      "rotation": [
        -0.70710678118654746,
        -0,
        -0,
        0.70710678118654757
      ]
    },
    {
      "children": [
        2
      ],
      "name": "RootNode (model correction matrix)"
    },
    {
      "children": [
        3
      ],
      "matrix": [
        1,
        0,
        0,
        0,
        0,
        0,
        1,
        0,
        0,
        -1,
        0,
        0,
        0,
        0,
        0,
        1
      ],
      "name": "e1832a33f00a4d47aa1185473181bf38.fbx"
    },
    {
      "children": [
        4
      ],
      "name": "RootNode"
    },
    {
      "children": [
        5
      ],
      "matrix": [
        0.88827699422836304,
        0,
        0,
        0,
        0,
        1.8412516333794282e-16,
        -0.82922601699829102,
        0,
        0,
        0.88827699422836304,
        1.9723711424743119e-16,
        0,
        0,
        30.211774826049805,
        0,
        1
      ],
      "name": "GeoSphere001"
    },
    {
      "children": [
        6
      ],
      "matrix": [
        1,
        0,
        -0,
        0,
        0,
        1,
        0,
        0,
        0,
        0,
        1,
        0,
        -54.408470153808594,
        -10.058014869689941,
        5.7493839263916016,
        1
      ],
      "name": ""
    },
    {
      "mesh": 0,
      "name": "GeoSphere001__zaaadefault_0"
    }
  ],
  "samplers": [
    {
      "magFilter": 9729,
      "minFilter": 9987,
      "wrapS": 10497,
      "wrapT": 10497
    }
  ],
  "scene": 0,
  "scenes": [
    {
      "name": "OSG_Scene",
      "nodes": [
        0
      ]
    }
  ],
  "textures": [
    {
      "sampler": 0,
      "source": 0
    }
  ]
}

