{
  "accessors": [
    {
      "bufferView": 2,
      "componentType": 5126,
      "count": 7757,
      "max": [
        2.5569000244140625,
        2.5569000244140625,
        2.0476200580596924
      ],
      "min": [
        -2.5569000244140625,
        -2.5569000244140625,
        -0.37602001428604126
      ],
      "type": "VEC3"
    },
    {
      "bufferView": 2,
      "byteOffset": 93084,
      "componentType": 5126,
      "count": 7757,
      "max": [
        0.99933367967605591,
        0.99933367967605591,
        1
      ],
      "min": [
        -0.99933367967605591,
        -0.99933367967605591,
        -1
      ],
      "type": "VEC3"
    },
    {
      "bufferView": 3,
      "componentType": 5126,
      "count": 7757,
      "max": [
        1,
        1,
        0.012879915535449982,
        1
      ],
      "min": [
        -0.99999964237213135,
        -1,
        -0.012879916466772556,
        -1
      ],
      "type": "VEC4"
    },
    {
      "bufferView": 1,
      "componentType": 5126,
      "count": 7757,
      "max": [
        2.0142700672149658,
        1.2468600273132324
      ],
      "min": [
        -1.0142699480056763,
        0.044100001454353333
      ],
      "type": "VEC2"
    },
    {
      "bufferView": 0,
      "componentType": 5125,
      "count": 43008,
      "max": [
        7756
      ],
      "min": [
        0
      ],
      "type": "SCALAR"
    },
    {
      "bufferView": 2,
      "byteOffset": 186168,
      "componentType": 5126,
      "count": 8704,
      "max": [
        2.6386499404907227,
        2.6386499404907227,
        2.2351200580596924
      ],
      "min": [
        -2.6386499404907227,
        -2.6386499404907227,
        -0.40795999765396118
      ],
      "type": "VEC3"
    },
    {
      "bufferView": 2,
      "byteOffset": 290616,
      "componentType": 5126,
      "count": 8704,
      "max": [
        1,
        1,
        0.99986392259597778
      ],
      "min": [
        -1,
        -1,
        -0.9987720251083374
      ],
      "type": "VEC3"
    },
    {
      "bufferView": 3,
      "byteOffset": 124112,
      "componentType": 5126,
      "count": 8704,
      "max": [
        0,
        0,
        0,
        1
      ],
      "min": [
        0,
        0,
        0,
        1
      ],
      "type": "VEC4"
    },
    {
      "bufferView": 0,
      "byteOffset": 172032,
      "componentType": 5125,
      "count": 49152,
      "max": [
        8703
      ],
      "min": [
        0
      ],
      "type": "SCALAR"
    }
  ],
  "asset": {
    "extras": {
      "author": "Mike Rowley (https://sketchfab.com/scrumpy26)",
      "license": "CC-BY-NC-SA-4.0 (http://creativecommons.org/licenses/by-nc-sa/4.0/)",
      "source": "https://sketchfab.com/models/c242179ac7b6431eb30c4db0e851bc45",
      "title": "Chrystal Bowl"
    },
    "generator": "Sketchfab-3.20.7",
    "version": "2.0"
  },
  "bufferViews": [
    {
      "buffer": 0,
      "byteLength": 368640,
      "byteOffset": 0,
      "name": "floatBufferViews",
      "target": 34963
    },
    {
      "buffer": 0,
      "byteLength": 62056,
      "byteOffset": 368640,
      "byteStride": 8,
      "name": "floatBufferViews",
      "target": 34962
    },
    {
      "buffer": 0,
      "byteLength": 395064,
      "byteOffset": 430696,
      "byteStride": 12,
      "name": "floatBufferViews",
      "target": 34962
    },
    {
      "buffer": 0,
      "byteLength": 263376,
      "byteOffset": 825760,
      "byteStride": 16,
      "name": "floatBufferViews",
      "target": 34962
    }
  ],
  "buffers": [
    {
      "byteLength": 1089136,
      "uri": "scene.bin"
    }
  ],
  "images": [
    {
      "uri": "textures/Material_normal.jpg"
    },
    {
      "uri": "textures/Material_metallicRoughness.png"
    }
  ],
  "materials": [
    {
      "alphaMode": "BLEND",
      "doubleSided": true,
      "emissiveFactor": [
        0,
        0,
        0
      ],
      "name": "Material",
      "normalTexture": {
        "index": 0,
        "scale": 1,
        "texCoord": 0
      },
      "pbrMetallicRoughness": {
        "baseColorFactor": [
          0.5,
          0.5,
          0.5,
          0.65000000000000002
        ],
        "metallicFactor": 1,
        "metallicRoughnessTexture": {
          "index": 1,
          "texCoord": 0
        },
        "roughnessFactor": 0.89000000000000001
      }
    },
    {
      "doubleSided": true,
      "name": "Material.001",
      "pbrMetallicRoughness": {
        "baseColorFactor": [
          0.5,
          0.5,
          0.5,
          1
        ],
        "metallicFactor": 1,
        "roughnessFactor": 0.26000000000000001
      }
    }
  ],
  "meshes": [
    {
      "name": "Circle_0",
      "primitives": [
        {
          "attributes": {
            "NORMAL": 1,
            "POSITION": 0,
            "TANGENT": 2,
            "TEXCOORD_0": 3
          },
          "indices": 4,
          "material": 0,
          "mode": 4
        }
      ]
    },
    {
      "name": "Circle_1",
      "primitives": [
        {
          "attributes": {
            "NORMAL": 6,
            "POSITION": 5,
            "TANGENT": 7
          },
          "indices": 8,
          "material": 1,
          "mode": 4
        }
      ]
    }
  ],
  "nodes": [
    {
      "children": [
        1
      ],
      "name": "RootNode (gltf orientation matrix)",
      "rotation": [
        -0.70710678118654746,
        -0,
        -0,
        0.70710678118654757
      ]
    },
    {
      "children": [
        2
      ],
      "name": "RootNode (model correction matrix)"
    },
    {
      "children": [
        3,
        5
      ],
      "name": "Root"
    },
    {
      "children": [
        4
      ],
      "matrix": [
        -0.25252999999999998,
        0.14510000000000001,
        0.95665000000000011,
        0,
        -0.95721000000000001,
        -0.18187,
        -0.22510000000000002,
        0,
        0.14132,
        -0.97255999999999987,
        0.18482000000000001,
        0,
        4.0762500000000008,
        -6.4495600000000008,
        5.9038600000000008,
        1
      ],
      "name": "Lamp"
    },
    {
      "name": "Lamp"
    },
    {
      "children": [
        6,
        7
      ],
      "name": "Circle"
    },
    {
      "mesh": 0,
      "name": "Circle_0"
    },
    {
      "mesh": 1,
      "name": "Circle_1"
    }
  ],
  "samplers": [
    {
      "magFilter": 9729,
      "minFilter": 9987,
      "wrapS": 10497,
      "wrapT": 10497
    }
  ],
  "scene": 0,
  "scenes": [
    {
      "name": "OSG_Scene",
      "nodes": [
        0
      ]
    }
  ],
  "textures": [
    {
      "sampler": 0,
      "source": 0
    },
    {
      "sampler": 0,
      "source": 1
    }
  ]
}

