{
  "accessors": [
    {
      "bufferView": 2,
      "componentType": 5126,
      "count": 4905,
      "max": [
        0.76309102773666382,
        0.62901097536087036,
        0.76305097341537476
      ],
      "min": [
        -0.76309102773666382,
        -1,
        -0.76305097341537476
      ],
      "type": "VEC3"
    },
    {
      "bufferView": 2,
      "byteOffset": 58860,
      "componentType": 5126,
      "count": 4905,
      "max": [
        0.99999988079071045,
        0.99986749887466431,
        0.99999988079071045
      ],
      "min": [
        -0.99999988079071045,
        -1,
        -0.99999988079071045
      ],
      "type": "VEC3"
    },
    {
      "bufferView": 3,
      "componentType": 5126,
      "count": 4905,
      "max": [
        1,
        0.035869725048542023,
        1,
        1
      ],
      "min": [
        -1,
        -0.035869557410478592,
        -1,
        1
      ],
      "type": "VEC4"
    },
    {
      "bufferView": 1,
      "componentType": 5126,
      "count": 4905,
      "max": [
        0.99401301145553589,
        0.91556501388549805
      ],
      "min": [
        0.005940999835729599,
        0.048183001577854156
      ],
      "type": "VEC2"
    },
    {
      "bufferView": 0,
      "componentType": 5125,
      "count": 28512,
      "max": [
        4904
      ],
      "min": [
        0
      ],
      "type": "SCALAR"
    },
    {
      "bufferView": 2,
      "byteOffset": 117720,
      "componentType": 5126,
      "count": 8731,
      "max": [
        0.55020201206207275,
        1,
        0.54275500774383545
      ],
      "min": [
        -0.5353659987449646,
        0.56106102466583252,
        -0.54275500774383545
      ],
      "type": "VEC3"
    },
    {
      "bufferView": 2,
      "byteOffset": 222492,
      "componentType": 5126,
      "count": 8731,
      "max": [
        0.99999988079071045,
        1,
        0.99999988079071045
      ],
      "min": [
        -0.99999988079071045,
        -0.99949914216995239,
        -0.99999988079071045
      ],
      "type": "VEC3"
    },
    {
      "bufferView": 3,
      "byteOffset": 78480,
      "componentType": 5126,
      "count": 8731,
      "max": [
        1,
        0.9999854564666748,
        1,
        1
      ],
      "min": [
        -1,
        -0.77629560232162476,
        -1,
        1
      ],
      "type": "VEC4"
    },
    {
      "bufferView": 1,
      "byteOffset": 39240,
      "componentType": 5126,
      "count": 8731,
      "max": [
        0.93781101703643799,
        0.95664900541305542
      ],
      "min": [
        0.029732000082731247,
        0.10855700075626373
      ],
      "type": "VEC2"
    },
    {
      "bufferView": 0,
      "byteOffset": 114048,
      "componentType": 5125,
      "count": 50556,
      "max": [
        8730
      ],
      "min": [
        0
      ],
      "type": "SCALAR"
    }
  ],
  "asset": {
    "extras": {
      "author": "Timzero4 (https://sketchfab.com/timzero4)",
      "license": "CC-BY-4.0 (http://creativecommons.org/licenses/by/4.0/)",
      "source": "https://sketchfab.com/models/1c97dc77eaee4112b4dd64be804e26c6",
      "title": "Cookie Jar"
    },
    "generator": "Sketchfab-3.33.1",
    "version": "2.0"
  },
  "bufferViews": [
    {
      "buffer": 0,
      "byteLength": 316272,
      "byteOffset": 0,
      "name": "floatBufferViews",
      "target": 34963
    },
    {
      "buffer": 0,
      "byteLength": 109088,
      "byteOffset": 316272,
      "byteStride": 8,
      "name": "floatBufferViews",
      "target": 34962
    },
    {
      "buffer": 0,
      "byteLength": 327264,
      "byteOffset": 425360,
      "byteStride": 12,
      "name": "floatBufferViews",
      "target": 34962
    },
    {
      "buffer": 0,
      "byteLength": 218176,
      "byteOffset": 752624,
      "byteStride": 16,
      "name": "floatBufferViews",
      "target": 34962
    }
  ],
  "buffers": [
    {
      "byteLength": 970800,
      "uri": "scene.bin"
    }
  ],
  "images": [
    {
      "uri": "textures/COOKIE_JAR_baseColor.jpeg"
    },
    {
      "uri": "textures/COOKIE_JAR_metallicRoughness.png"
    },
    {
      "uri": "textures/COOKIE_JAR_normal.png"
    }
  ],
  "materials": [
    {
      "doubleSided": true,
      "name": "COOKIE_JAR",
      "normalTexture": {
        "index": 2,
        "scale": 1,
        "texCoord": 0
      },
      "occlusionTexture": {
        "index": 1,
        "strength": 1,
        "texCoord": 0
      },
      "pbrMetallicRoughness": {
        "baseColorFactor": [
          1,
          1,
          1,
          1
        ],
        "baseColorTexture": {
          "index": 0,
          "texCoord": 0
        },
        "metallicFactor": 1,
        "metallicRoughnessTexture": {
          "index": 1,
          "texCoord": 0
        },
        "roughnessFactor": 1
      }
    }
  ],
  "meshes": [
    {
      "name": "defaultMaterial",
      "primitives": [
        {
          "attributes": {
            "NORMAL": 1,
            "POSITION": 0,
            "TANGENT": 2,
            "TEXCOORD_0": 3
          },
          "indices": 4,
          "material": 0,
          "mode": 4
        }
      ]
    },
    {
      "name": "defaultMaterial",
      "primitives": [
        {
          "attributes": {
            "NORMAL": 6,
            "POSITION": 5,
            "TANGENT": 7,
            "TEXCOORD_0": 8
          },
          "indices": 9,
          "material": 0,
          "mode": 4
        }
      ]
    }
  ],
  "nodes": [
    {
      "children": [
        1
      ],
      "name": "RootNode (gltf orientation matrix)",
      "rotation": [
        -0.70710678118654746,
        -0,
        -0,
        0.70710678118654757
      ]
    },
    {
      "children": [
        2
      ],
      "name": "RootNode (model correction matrix)"
    },
    {
      "children": [
        3,
        5
      ],
      "matrix": [
        1,
        0,
        0,
        0,
        0,
        -4.3711390063094768e-08,
        0.999999999999999,
        0,
        0,
        -0.999999999999999,
        -4.3711390063094768e-08,
        0,
        0,
        0,
        0,
        1
      ],
      "name": "Collada visual scene group"
    },
    {
      "children": [
        4
      ],
      "name": "BezierCurve"
    },
    {
      "mesh": 0,
      "name": "defaultMaterial"
    },
    {
      "children": [
        6
      ],
      "name": "BezierCurve_001"
    },
    {
      "mesh": 1,
      "name": "defaultMaterial"
    }
  ],
  "samplers": [
    {
      "magFilter": 9729,
      "minFilter": 9987,
      "wrapS": 10497,
      "wrapT": 10497
    }
  ],
  "scene": 0,
  "scenes": [
    {
      "name": "OSG_Scene",
      "nodes": [
        0
      ]
    }
  ],
  "textures": [
    {
      "sampler": 0,
      "source": 0
    },
    {
      "sampler": 0,
      "source": 1
    },
    {
      "sampler": 0,
      "source": 2
    }
  ]
}

