{
  "accessors": [
    {
      "bufferView": 2,
      "componentType": 5126,
      "count": 3059,
      "max": [
        7.2646198272705078,
        7.2646198272705078,
        11.376540184020996
      ],
      "min": [
        -7.2646398544311523,
        -7.2646298408508301,
        0.051199998706579208
      ],
      "type": "VEC3"
    },
    {
      "bufferView": 2,
      "byteOffset": 36708,
      "componentType": 5126,
      "count": 3059,
      "max": [
        1,
        1,
        0.99999874830245972
      ],
      "min": [
        -1,
        -1,
        -0.99999874830245972
      ],
      "type": "VEC3"
    },
    {
      "bufferView": 3,
      "componentType": 5126,
      "count": 3059,
      "max": [
        1,
        0.99969333410263062,
        0.9995197057723999,
        1
      ],
      "min": [
        -0.99999827146530151,
        -0.99966692924499512,
        -0.99988609552383423,
        1
      ],
      "type": "VEC4"
    },
    {
      "bufferView": 1,
      "componentType": 5126,
      "count": 3059,
      "max": [
        0.99984997510910034,
        0.98211002349853516
      ],
      "min": [
        0.0001500000071246177,
        0.0001500000071246177
      ],
      "type": "VEC2"
    },
    {
      "bufferView": 0,
      "componentType": 5125,
      "count": 17322,
      "max": [
        3058
      ],
      "min": [
        0
      ],
      "type": "SCALAR"
    }
  ],
  "asset": {
    "extras": {
      "author": "sb129 (https://sketchfab.com/sb129)",
      "license": "CC-BY-NC-4.0 (http://creativecommons.org/licenses/by-nc/4.0/)",
      "source": "https://sketchfab.com/models/9312e1be076245e58613e906d76a002c",
      "title": "Korin's Senzu Bean Jar"
    },
    "generator": "Sketchfab-3.36.0",
    "version": "2.0"
  },
  "bufferViews": [
    {
      "buffer": 0,
      "byteLength": 69288,
      "byteOffset": 0,
      "name": "floatBufferViews",
      "target": 34963
    },
    {
      "buffer": 0,
      "byteLength": 24472,
      "byteOffset": 69288,
      "byteStride": 8,
      "name": "floatBufferViews",
      "target": 34962
    },
    {
      "buffer": 0,
      "byteLength": 73416,
      "byteOffset": 93760,
      "byteStride": 12,
      "name": "floatBufferViews",
      "target": 34962
    },
    {
      "buffer": 0,
      "byteLength": 48944,
      "byteOffset": 167176,
      "byteStride": 16,
      "name": "floatBufferViews",
      "target": 34962
    }
  ],
  "buffers": [
    {
      "byteLength": 216120,
      "uri": "scene.bin"
    }
  ],
  "images": [
    {
      "uri": "textures/material_baseColor.png"
    }
  ],
  "materials": [
    {
      "doubleSided": true,
      "emissiveFactor": [
        0.099999993999999995,
        0.099999993999999995,
        0.099999993999999995
      ],
      "name": "material",
      "pbrMetallicRoughness": {
        "baseColorFactor": [
          1,
          1,
          1,
          1
        ],
        "baseColorTexture": {
          "index": 0,
          "texCoord": 0
        },
        "metallicFactor": 0,
        "roughnessFactor": 0.59999999999999998
      }
    }
  ],
  "meshes": [
    {
      "name": "Jar_0",
      "primitives": [
        {
          "attributes": {
            "NORMAL": 1,
            "POSITION": 0,
            "TANGENT": 2,
            "TEXCOORD_0": 3
          },
          "indices": 4,
          "material": 0,
          "mode": 4
        }
      ]
    }
  ],
  "nodes": [
    {
      "children": [
        1
      ],
      "name": "RootNode (gltf orientation matrix)",
      "rotation": [
        -0.70710678118654746,
        -0,
        -0,
        0.70710678118654757
      ]
    },
    {
      "children": [
        2
      ],
      "name": "RootNode (model correction matrix)"
    },
    {
      "children": [
        3,
        5,
        7
      ],
      "name": "Root"
    },
    {
      "children": [
        4
      ],
      "matrix": [
        -0.29086000000000006,
        0.95517000000000007,
        -0.05519000000000001,
        0,
        -0.77110000000000001,
        -0.19988000000000003,
        0.60452000000000006,
        0,
        0.56639000000000006,
        0.21839000000000003,
        0.7946700000000001,
        0,
        4.0762500000000008,
        1.00545,
        5.9038600000000008,
        1
      ],
      "name": "Lamp"
    },
    {
      "name": "Lamp"
    },
    {
      "children": [
        6
      ],
      "matrix": [
        -0,
        1,
        0,
        0,
        -1,
        -0,
        0,
        0,
        0,
        0,
        1,
        0,
        0,
        0,
        0,
        1
      ],
      "name": "Jar"
    },
    {
      "mesh": 0,
      "name": "Jar_0"
    },
    {
      "children": [
        8
      ],
      "matrix": [
        0.98034999999999994,
        0,
        -0.19727000000000003,
        0,
        0.16375000000000003,
        0.55766000000000004,
        0.81375000000000008,
        0,
        0.11001000000000001,
        -0.83007000000000009,
        0.54671000000000003,
        0,
        4.53681,
        -30.616230000000002,
        23.167080000000002,
        1
      ],
      "name": "Sun"
    },
    {
      "name": "Sun"
    }
  ],
  "samplers": [
    {
      "magFilter": 9729,
      "minFilter": 9987,
      "wrapS": 10497,
      "wrapT": 10497
    }
  ],
  "scene": 0,
  "scenes": [
    {
      "name": "OSG_Scene",
      "nodes": [
        0
      ]
    }
  ],
  "textures": [
    {
      "sampler": 0,
      "source": 0
    }
  ]
}

