{
  "accessors": [
    {
      "bufferView": 2,
      "componentType": 5126,
      "count": 303,
      "max": [
        2.356895923614502,
        0.21524600684642792,
        1.9304260015487671
      ],
      "min": [
        -4.1282367706298828,
        -0.21089400351047516,
        1.5783519744873047
      ],
      "type": "VEC3"
    },
    {
      "bufferView": 2,
      "byteOffset": 3636,
      "componentType": 5126,
      "count": 303,
      "max": [
        0.9999997615814209,
        0.9999653697013855,
        0.99999338388442993
      ],
      "min": [
        -0.99996697902679443,
        -0.99997073411941528,
        -0.99999338388442993
      ],
      "type": "VEC3"
    },
    {
      "bufferView": 3,
      "componentType": 5126,
      "count": 303,
      "max": [
        0.95574259757995605,
        0.99997085332870483,
        1,
        1
      ],
      "min": [
        -0.99990612268447876,
        -0.99817800521850586,
        -0.99827265739440918,
        -1
      ],
      "type": "VEC4"
    },
    {
      "bufferView": 1,
      "componentType": 5126,
      "count": 303,
      "max": [
        0.86019200086593628,
        0.91433501243591309
      ],
      "min": [
        0.060649000108242035,
        0.16075499355792999
      ],
      "type": "VEC2"
    },
    {
      "bufferView": 0,
      "componentType": 5125,
      "count": 744,
      "max": [
        302
      ],
      "min": [
        0
      ],
      "type": "SCALAR"
    },
    {
      "bufferView": 2,
      "byteOffset": 7272,
      "componentType": 5126,
      "count": 4090,
      "max": [
        8.7852010726928711,
        3.5422790050506592,
        1.7881660461425781
      ],
      "min": [
        -4.3845329284667969,
        -3.5687849521636963,
        0.33807700872421265
      ],
      "type": "VEC3"
    },
    {
      "bufferView": 2,
      "byteOffset": 56352,
      "componentType": 5126,
      "count": 4090,
      "max": [
        1,
        0.9999920129776001,
        0.99999988079071045
      ],
      "min": [
        -0.9999995231628418,
        -0.99999552965164185,
        -0.99999850988388062
      ],
      "type": "VEC3"
    },
    {
      "bufferView": 3,
      "byteOffset": 4848,
      "componentType": 5126,
      "count": 4090,
      "max": [
        0.99998253583908081,
        0.99999707937240601,
        0.99999678134918213,
        1
      ],
      "min": [
        -0.99998462200164795,
        -0.99999517202377319,
        -0.99999713897705078,
        -1
      ],
      "type": "VEC4"
    },
    {
      "bufferView": 1,
      "byteOffset": 2424,
      "componentType": 5126,
      "count": 4090,
      "max": [
        0.95925599336624146,
        0.98743802309036255
      ],
      "min": [
        0.05360100045800209,
        0.058040998876094818
      ],
      "type": "VEC2"
    },
    {
      "bufferView": 0,
      "byteOffset": 2976,
      "componentType": 5125,
      "count": 7290,
      "max": [
        4089
      ],
      "min": [
        0
      ],
      "type": "SCALAR"
    }
  ],
  "asset": {
    "extras": {
      "author": "Borgen (https://sketchfab.com/swedenbrainstew)",
      "license": "CC-BY-4.0 (http://creativecommons.org/licenses/by/4.0/)",
      "source": "https://sketchfab.com/models/42d9d42768e54dd9ade47f3f3daa1e89",
      "title": "Crossbow"
    },
    "generator": "Sketchfab-3.29.4-rc3",
    "version": "2.0"
  },
  "bufferViews": [
    {
      "buffer": 0,
      "byteLength": 32136,
      "byteOffset": 0,
      "name": "floatBufferViews",
      "target": 34963
    },
    {
      "buffer": 0,
      "byteLength": 35144,
      "byteOffset": 32136,
      "byteStride": 8,
      "name": "floatBufferViews",
      "target": 34962
    },
    {
      "buffer": 0,
      "byteLength": 105432,
      "byteOffset": 67280,
      "byteStride": 12,
      "name": "floatBufferViews",
      "target": 34962
    },
    {
      "buffer": 0,
      "byteLength": 70288,
      "byteOffset": 172712,
      "byteStride": 16,
      "name": "floatBufferViews",
      "target": 34962
    }
  ],
  "buffers": [
    {
      "byteLength": 243000,
      "uri": "scene.bin"
    }
  ],
  "images": [
    {
      "uri": "textures/lambert2SG_baseColor.png"
    },
    {
      "uri": "textures/CrossBowlambert3SG_baseColor.png"
    }
  ],
  "materials": [
    {
      "doubleSided": true,
      "emissiveFactor": [
        0,
        0,
        0
      ],
      "name": "CrossBowlambert3SG",
      "pbrMetallicRoughness": {
        "baseColorFactor": [
          1,
          1,
          1,
          1
        ],
        "baseColorTexture": {
          "index": 1,
          "texCoord": 0
        },
        "metallicFactor": 0,
        "roughnessFactor": 0.59999999999999998
      }
    },
    {
      "doubleSided": true,
      "emissiveFactor": [
        0,
        0,
        0
      ],
      "name": "lambert2SG",
      "pbrMetallicRoughness": {
        "baseColorFactor": [
          1,
          1,
          1,
          1
        ],
        "baseColorTexture": {
          "index": 0,
          "texCoord": 0
        },
        "metallicFactor": 0,
        "roughnessFactor": 0.59999999999999998
      }
    }
  ],
  "meshes": [
    {
      "primitives": [
        {
          "attributes": {
            "NORMAL": 1,
            "POSITION": 0,
            "TANGENT": 2,
            "TEXCOORD_0": 3
          },
          "indices": 4,
          "material": 1,
          "mode": 4
        }
      ]
    },
    {
      "primitives": [
        {
          "attributes": {
            "NORMAL": 6,
            "POSITION": 5,
            "TANGENT": 7,
            "TEXCOORD_0": 8
          },
          "indices": 9,
          "material": 0,
          "mode": 4
        }
      ]
    }
  ],
  "nodes": [
    {
      "children": [
        1
      ],
      "name": "RootNode (gltf orientation matrix)",
      "rotation": [
        -0.70710678118654746,
        -0,
        -0,
        0.70710678118654757
      ]
    },
    {
      "children": [
        2
      ],
      "name": "RootNode (model correction matrix)"
    },
    {
      "children": [
        3,
        4
      ],
      "name": "Bolt + Bow.obj.cleaner"
    },
    {
      "mesh": 0,
      "name": ""
    },
    {
      "mesh": 1,
      "name": ""
    }
  ],
  "samplers": [
    {
      "magFilter": 9729,
      "minFilter": 9987,
      "wrapS": 10497,
      "wrapT": 10497
    }
  ],
  "scene": 0,
  "scenes": [
    {
      "name": "OSG_Scene",
      "nodes": [
        0
      ]
    }
  ],
  "textures": [
    {
      "sampler": 0,
      "source": 0
    },
    {
      "sampler": 0,
      "source": 1
    }
  ]
}

