{
  "accessors": [
    {
      "bufferView": 2,
      "componentType": 5126,
      "count": 981,
      "max": [
        0.82101118564605713,
        1.7627099752426147,
        0.15426680445671082
      ],
      "min": [
        -0.96468371152877808,
        -0.8155667781829834,
        -0.15426680445671082
      ],
      "type": "VEC3"
    },
    {
      "bufferView": 2,
      "byteOffset": 11772,
      "componentType": 5126,
      "count": 981,
      "max": [
        0.99696731567382812,
        0.9991689920425415,
        1
      ],
      "min": [
        -0.99858307838439941,
        -0.9991689920425415,
        -1
      ],
      "type": "VEC3"
    },
    {
      "bufferView": 3,
      "componentType": 5126,
      "count": 981,
      "max": [
        0.46939504146575928,
        0.88298863172531128,
        0.99997210502624512,
        1
      ],
      "min": [
        -1,
        -0.98724657297134399,
        -0.99997210502624512,
        -1
      ],
      "type": "VEC4"
    },
    {
      "bufferView": 1,
      "componentType": 5126,
      "count": 981,
      "max": [
        0.92422032356262207,
        0.97097837924957275
      ],
      "min": [
        0.73373442888259888,
        0.042293131351470947
      ],
      "type": "VEC2"
    },
    {
      "bufferView": 0,
      "componentType": 5125,
      "count": 1098,
      "max": [
        980
      ],
      "min": [
        0
      ],
      "type": "SCALAR"
    },
    {
      "bufferView": 2,
      "byteOffset": 23544,
      "componentType": 5126,
      "count": 1080,
      "max": [
        0.26946508884429932,
        -0.063327901065349579,
        0.16938289999961853
      ],
      "min": [
        -0.41245919466018677,
        -0.60178530216217041,
        -0.16938289999961853
      ],
      "type": "VEC3"
    },
    {
      "bufferView": 2,
      "byteOffset": 36504,
      "componentType": 5126,
      "count": 1080,
      "max": [
        0.97509080171585083,
        0.99608290195465088,
        0.99986171722412109
      ],
      "min": [
        -0.94316720962524414,
        -0.99608319997787476,
        -0.99986171722412109
      ],
      "type": "VEC3"
    },
    {
      "bufferView": 3,
      "byteOffset": 15696,
      "componentType": 5126,
      "count": 1080,
      "max": [
        0.66651445627212524,
        0.35639646649360657,
        0.99741131067276001,
        1
      ],
      "min": [
        -0.99999040365219116,
        -0.96734422445297241,
        -0.99741125106811523,
        -1
      ],
      "type": "VEC4"
    },
    {
      "bufferView": 1,
      "byteOffset": 7848,
      "componentType": 5126,
      "count": 1080,
      "max": [
        0.57189452648162842,
        0.86351460218429565
      ],
      "min": [
        0.21343719959259033,
        0.11113230139017105
      ],
      "type": "VEC2"
    },
    {
      "bufferView": 0,
      "byteOffset": 4392,
      "componentType": 5125,
      "count": 1080,
      "max": [
        1079
      ],
      "min": [
        0
      ],
      "type": "SCALAR"
    }
  ],
  "asset": {
    "extras": {
      "author": "Taboo16 (https://sketchfab.com/Taboo16)",
      "license": "CC-BY-4.0 (http://creativecommons.org/licenses/by/4.0/)",
      "source": "https://sketchfab.com/models/5717ea55e34341b79efa692517e8598b",
      "title": "Goblin Sword"
    },
    "generator": "Sketchfab-3.20.7",
    "version": "2.0"
  },
  "bufferViews": [
    {
      "buffer": 0,
      "byteLength": 8712,
      "byteOffset": 0,
      "name": "floatBufferViews",
      "target": 34963
    },
    {
      "buffer": 0,
      "byteLength": 16488,
      "byteOffset": 8712,
      "byteStride": 8,
      "name": "floatBufferViews",
      "target": 34962
    },
    {
      "buffer": 0,
      "byteLength": 49464,
      "byteOffset": 25200,
      "byteStride": 12,
      "name": "floatBufferViews",
      "target": 34962
    },
    {
      "buffer": 0,
      "byteLength": 32976,
      "byteOffset": 74664,
      "byteStride": 16,
      "name": "floatBufferViews",
      "target": 34962
    }
  ],
  "buffers": [
    {
      "byteLength": 107640,
      "uri": "scene.bin"
    }
  ],
  "images": [
    {
      "uri": "textures/Material_001_baseColor.png"
    },
    {
      "uri": "textures/Material_baseColor.png"
    },
    {
      "uri": "textures/Material_metallicRoughness.png"
    }
  ],
  "materials": [
    {
      "doubleSided": true,
      "emissiveFactor": [
        0,
        0,
        0
      ],
      "name": "Material",
      "pbrMetallicRoughness": {
        "baseColorFactor": [
          0.41634908539999999,
          0.41634908539999999,
          0.41634908539999999,
          1
        ],
        "baseColorTexture": {
          "index": 1,
          "texCoord": 0
        },
        "metallicFactor": 0.12976371950000001,
        "metallicRoughnessTexture": {
          "index": 2,
          "texCoord": 0
        },
        "roughnessFactor": 0.13852896339999998
      }
    },
    {
      "doubleSided": true,
      "emissiveFactor": [
        0,
        0,
        0
      ],
      "name": "Material_001",
      "pbrMetallicRoughness": {
        "baseColorFactor": [
          0.66025152440000001,
          0.66025152440000001,
          0.66025152440000001,
          1
        ],
        "baseColorTexture": {
          "index": 0,
          "texCoord": 0
        },
        "metallicFactor": 0,
        "roughnessFactor": 1
      }
    }
  ],
  "meshes": [
    {
      "name": "Material-material",
      "primitives": [
        {
          "attributes": {
            "NORMAL": 1,
            "POSITION": 0,
            "TANGENT": 2,
            "TEXCOORD_0": 3
          },
          "indices": 4,
          "material": 0,
          "mode": 4
        }
      ]
    },
    {
      "name": "Material_001-material",
      "primitives": [
        {
          "attributes": {
            "NORMAL": 6,
            "POSITION": 5,
            "TANGENT": 7,
            "TEXCOORD_0": 8
          },
          "indices": 9,
          "material": 1,
          "mode": 4
        }
      ]
    }
  ],
  "nodes": [
    {
      "children": [
        1
      ],
      "name": "RootNode (gltf orientation matrix)",
      "rotation": [
        -0.70710678118654746,
        -0,
        -0,
        0.70710678118654757
      ]
    },
    {
      "children": [
        2
      ],
      "name": "RootNode (model correction matrix)"
    },
    {
      "children": [
        3,
        5,
        8
      ],
      "name": "Collada visual scene group"
    },
    {
      "children": [
        4
      ],
      "matrix": [
        1,
        0,
        0,
        0,
        0,
        1,
        0,
        0,
        0,
        0,
        1,
        0,
        1.5950439999999999,
        -1.381634,
        0.84870610000000002,
        1
      ],
      "name": "Point"
    },
    {
      "name": "Point"
    },
    {
      "children": [
        6,
        7
      ],
      "matrix": [
        1.8525299999999998e-08,
        -0.2453747,
        0,
        0,
        -3.5560899999999998e-08,
        -2.8654199999999999e-15,
        0.81353880000000001,
        0,
        -0.2453747,
        -1.8525299999999998e-08,
        -1.07257e-08,
        0,
        0,
        0,
        0,
        1
      ],
      "name": "Plane"
    },
    {
      "mesh": 0,
      "name": "Material-material"
    },
    {
      "mesh": 1,
      "name": "Material_001-material"
    },
    {
      "children": [
        9
      ],
      "matrix": [
        0.6858805,
        0.7276338,
        -0.01081678,
        0,
        -0.31737009999999999,
        0.31246859999999999,
        0.89534320000000001,
        0,
        0.6548619,
        -0.61066560000000003,
        0.44524540000000001,
        0,
        7.4811319999999997,
        -6.5076400000000003,
        5.3436649999999997,
        1
      ],
      "name": "Camera"
    },
    {
      "name": "Camera-camera"
    }
  ],
  "samplers": [
    {
      "magFilter": 9729,
      "minFilter": 9987,
      "wrapS": 10497,
      "wrapT": 10497
    }
  ],
  "scene": 0,
  "scenes": [
    {
      "name": "OSG_Scene",
      "nodes": [
        0
      ]
    }
  ],
  "textures": [
    {
      "sampler": 0,
      "source": 0
    },
    {
      "sampler": 0,
      "source": 1
    },
    {
      "sampler": 0,
      "source": 2
    }
  ]
}

