{
  "accessors": [
    {
      "bufferView": 2,
      "componentType": 5126,
      "count": 702,
      "max": [
        1,
        0.73075598478317261,
        0.51660400629043579
      ],
      "min": [
        -1,
        -0.73075598478317261,
        -0.51660400629043579
      ],
      "type": "VEC3"
    },
    {
      "bufferView": 2,
      "byteOffset": 8424,
      "componentType": 5126,
      "count": 702,
      "max": [
        0.99999946355819702,
        1,
        0.99866801500320435
      ],
      "min": [
        -1,
        -1,
        -0.99866801500320435
      ],
      "type": "VEC3"
    },
    {
      "bufferView": 3,
      "componentType": 5126,
      "count": 702,
      "max": [
        1,
        0.9910539984703064,
        1,
        1
      ],
      "min": [
        -1,
        -0.99890601634979248,
        -1,
        1
      ],
      "type": "VEC4"
    },
    {
      "bufferView": 1,
      "componentType": 5126,
      "count": 702,
      "max": [
        0.995868980884552,
        1
      ],
      "min": [
        0,
        0
      ],
      "type": "VEC2"
    },
    {
      "bufferView": 0,
      "componentType": 5125,
      "count": 3198,
      "max": [
        701
      ],
      "min": [
        0
      ],
      "type": "SCALAR"
    },
    {
      "bufferView": 2,
      "byteOffset": 16848,
      "componentType": 5126,
      "count": 18,
      "max": [
        0.42589899897575378,
        0.5540509819984436,
        0.11545299738645554
      ],
      "min": [
        0.40412798523902893,
        0.53228002786636353,
        -0.11545299738645554
      ],
      "type": "VEC3"
    },
    {
      "bufferView": 2,
      "byteOffset": 17064,
      "componentType": 5126,
      "count": 18,
      "max": [
        0.99889063835144043,
        0.99889063835144043,
        0.047090280801057816
      ],
      "min": [
        -0.99889063835144043,
        -0.99889063835144043,
        -0.047090280801057816
      ],
      "type": "VEC3"
    },
    {
      "bufferView": 3,
      "byteOffset": 11232,
      "componentType": 5126,
      "count": 18,
      "max": [
        1,
        0.99998998641967773,
        0.99889099597930908,
        1
      ],
      "min": [
        -1,
        -0.99998998641967773,
        -0.99889099597930908,
        1
      ],
      "type": "VEC4"
    },
    {
      "bufferView": 1,
      "byteOffset": 5616,
      "componentType": 5126,
      "count": 18,
      "max": [
        0.95606899261474609,
        0.33652800321578979
      ],
      "min": [
        0,
        0
      ],
      "type": "VEC2"
    },
    {
      "bufferView": 0,
      "byteOffset": 12792,
      "componentType": 5125,
      "count": 36,
      "max": [
        17
      ],
      "min": [
        0
      ],
      "type": "SCALAR"
    }
  ],
  "asset": {
    "extras": {
      "author": "youssefjoukeh (https://sketchfab.com/youssefjoukeh)",
      "license": "CC-BY-4.0 (http://creativecommons.org/licenses/by/4.0/)",
      "source": "https://sketchfab.com/models/bf623d3d136b4902932cf7339ba4656a",
      "title": "Teapot (Low Poly)"
    },
    "generator": "Sketchfab-3.19.6",
    "version": "2.0"
  },
  "bufferViews": [
    {
      "buffer": 0,
      "byteLength": 12936,
      "byteOffset": 0,
      "name": "floatBufferViews",
      "target": 34963
    },
    {
      "buffer": 0,
      "byteLength": 5760,
      "byteOffset": 12936,
      "byteStride": 8,
      "name": "floatBufferViews",
      "target": 34962
    },
    {
      "buffer": 0,
      "byteLength": 17280,
      "byteOffset": 18696,
      "byteStride": 12,
      "name": "floatBufferViews",
      "target": 34962
    },
    {
      "buffer": 0,
      "byteLength": 11520,
      "byteOffset": 35976,
      "byteStride": 16,
      "name": "floatBufferViews",
      "target": 34962
    }
  ],
  "buffers": [
    {
      "byteLength": 47496,
      "uri": "scene.bin"
    }
  ],
  "images": [
    {
      "uri": "textures/blinn2_metallicRoughness.png"
    },
    {
      "uri": "textures/blinn2_normal.png"
    },
    {
      "uri": "textures/blinn2_baseColor.png"
    },
    {
      "uri": "textures/blinn1_metallicRoughness.png"
    },
    {
      "uri": "textures/blinn1_normal.png"
    },
    {
      "uri": "textures/blinn1_baseColor.png"
    }
  ],
  "materials": [
    {
      "doubleSided": true,
      "emissiveFactor": [
        0,
        0,
        0
      ],
      "name": "blinn1",
      "normalTexture": {
        "index": 4,
        "scale": 1,
        "texCoord": 0
      },
      "occlusionTexture": {
        "index": 3,
        "strength": 1,
        "texCoord": 0
      },
      "pbrMetallicRoughness": {
        "baseColorFactor": [
          1,
          1,
          1,
          1
        ],
        "baseColorTexture": {
          "index": 5,
          "texCoord": 0
        },
        "metallicFactor": 1,
        "metallicRoughnessTexture": {
          "index": 3,
          "texCoord": 0
        },
        "roughnessFactor": 1
      }
    },
    {
      "doubleSided": true,
      "emissiveFactor": [
        0,
        0,
        0
      ],
      "name": "blinn2",
      "normalTexture": {
        "index": 1,
        "scale": 1,
        "texCoord": 0
      },
      "occlusionTexture": {
        "index": 0,
        "strength": 1,
        "texCoord": 0
      },
      "pbrMetallicRoughness": {
        "baseColorFactor": [
          1,
          1,
          1,
          1
        ],
        "baseColorTexture": {
          "index": 2,
          "texCoord": 0
        },
        "metallicFactor": 1,
        "metallicRoughnessTexture": {
          "index": 0,
          "texCoord": 0
        },
        "roughnessFactor": 1
      }
    }
  ],
  "meshes": [
    {
      "name": "defaultMaterial",
      "primitives": [
        {
          "attributes": {
            "NORMAL": 1,
            "POSITION": 0,
            "TANGENT": 2,
            "TEXCOORD_0": 3
          },
          "indices": 4,
          "material": 1,
          "mode": 4
        }
      ]
    },
    {
      "name": "defaultMaterial",
      "primitives": [
        {
          "attributes": {
            "NORMAL": 6,
            "POSITION": 5,
            "TANGENT": 7,
            "TEXCOORD_0": 8
          },
          "indices": 9,
          "material": 0,
          "mode": 4
        }
      ]
    }
  ],
  "nodes": [
    {
      "children": [
        1
      ],
      "name": "RootNode (gltf orientation matrix)",
      "rotation": [
        -0.70710678118654746,
        -0,
        -0,
        0.70710678118654757
      ]
    },
    {
      "children": [
        2
      ],
      "matrix": [
        -0.91895449161529541,
        0.39436355233192444,
        0,
        0,
        -0.39436355233192444,
        -0.91895449161529541,
        0,
        0,
        0,
        0,
        1,
        0,
        6.2440000192509615e-07,
        -1.0224000561720459e-06,
        0,
        1
      ],
      "name": "RootNode (model correction matrix)"
    },
    {
      "children": [
        3,
        5
      ],
      "matrix": [
        1,
        0,
        0,
        0,
        0,
        -4.3711390063094768e-08,
        0.999999999999999,
        0,
        0,
        -0.999999999999999,
        -4.3711390063094768e-08,
        0,
        0,
        0,
        0,
        1
      ],
      "name": "Collada visual scene group"
    },
    {
      "children": [
        4
      ],
      "name": "polySurface26"
    },
    {
      "mesh": 0,
      "name": "defaultMaterial"
    },
    {
      "children": [
        6
      ],
      "name": "polySurface26"
    },
    {
      "mesh": 1,
      "name": "defaultMaterial"
    }
  ],
  "samplers": [
    {
      "magFilter": 9729,
      "minFilter": 9987,
      "wrapS": 10497,
      "wrapT": 10497
    }
  ],
  "scene": 0,
  "scenes": [
    {
      "name": "OSG_Scene",
      "nodes": [
        0
      ]
    }
  ],
  "textures": [
    {
      "sampler": 0,
      "source": 0
    },
    {
      "sampler": 0,
      "source": 1
    },
    {
      "sampler": 0,
      "source": 2
    },
    {
      "sampler": 0,
      "source": 3
    },
    {
      "sampler": 0,
      "source": 4
    },
    {
      "sampler": 0,
      "source": 5
    }
  ]
}

