{
  "accessors": [
    {
      "bufferView": 2,
      "componentType": 5126,
      "count": 1183,
      "max": [
        9.8337936401367188,
        9.833796501159668,
        34.652458190917969
      ],
      "min": [
        -9.8337993621826172,
        -9.833796501159668,
        30.138280868530273
      ],
      "type": "VEC3"
    },
    {
      "bufferView": 2,
      "byteOffset": 14196,
      "componentType": 5126,
      "count": 1183,
      "max": [
        0.81646037101745605,
        0.8063046932220459,
        1
      ],
      "min": [
        -0.81645393371582031,
        -0.80630475282669067,
        -1
      ],
      "type": "VEC3"
    },
    {
      "bufferView": 3,
      "componentType": 5126,
      "count": 1183,
      "max": [
        1,
        0.00091161456657573581,
        0.8192594051361084,
        1
      ],
      "min": [
        -1,
        -0.010639981366693974,
        -0.81926637887954712,
        1
      ],
      "type": "VEC4"
    },
    {
      "bufferView": 1,
      "componentType": 5126,
      "count": 1183,
      "max": [
        0.98130851984024048,
        0.74779343605041504
      ],
      "min": [
        0.018691480159759521,
        0.31145137548446655
      ],
      "type": "VEC2"
    },
    {
      "bufferView": 0,
      "componentType": 5125,
      "count": 6138,
      "max": [
        1182
      ],
      "min": [
        0
      ],
      "type": "SCALAR"
    },
    {
      "bufferView": 2,
      "byteOffset": 28392,
      "componentType": 5126,
      "count": 8198,
      "max": [
        10.696473121643066,
        10.981489181518555,
        30.440187454223633
      ],
      "min": [
        -10.695194244384766,
        -10.983263969421387,
        -0.00052462000166997313
      ],
      "type": "VEC3"
    },
    {
      "bufferView": 2,
      "byteOffset": 126768,
      "componentType": 5126,
      "count": 8198,
      "max": [
        0.99998992681503296,
        0.99997913837432861,
        0.99996805191040039
      ],
      "min": [
        -0.99995934963226318,
        -0.99997162818908691,
        -0.99999821186065674
      ],
      "type": "VEC3"
    },
    {
      "bufferView": 0,
      "byteOffset": 24552,
      "componentType": 5125,
      "count": 49596,
      "max": [
        8197
      ],
      "min": [
        0
      ],
      "type": "SCALAR"
    }
  ],
  "asset": {
    "extras": {
      "author": "MehdiMMirzaie (https://sketchfab.com/MehdiMM)",
      "license": "CC-BY-NC-4.0 (http://creativecommons.org/licenses/by-nc/4.0/)",
      "source": "https://sketchfab.com/3d-models/jewelry-silver-ring-remodeled-a6130764e90d42a8af94e7749da578fe",
      "title": "Jewelry Silver Ring - Remodeled"
    },
    "generator": "Sketchfab-4.40.0",
    "version": "2.0"
  },
  "bufferViews": [
    {
      "buffer": 0,
      "byteLength": 222936,
      "byteOffset": 0,
      "name": "floatBufferViews",
      "target": 34963
    },
    {
      "buffer": 0,
      "byteLength": 9464,
      "byteOffset": 222936,
      "byteStride": 8,
      "name": "floatBufferViews",
      "target": 34962
    },
    {
      "buffer": 0,
      "byteLength": 225144,
      "byteOffset": 232400,
      "byteStride": 12,
      "name": "floatBufferViews",
      "target": 34962
    },
    {
      "buffer": 0,
      "byteLength": 18928,
      "byteOffset": 457544,
      "byteStride": 16,
      "name": "floatBufferViews",
      "target": 34962
    }
  ],
  "buffers": [
    {
      "byteLength": 476472,
      "uri": "scene.bin"
    }
  ],
  "images": [
    {
      "uri": "textures/Material_4_baseColor.jpeg"
    }
  ],
  "materials": [
    {
      "alphaMode": "BLEND",
      "doubleSided": true,
      "emissiveFactor": [
        0,
        0,
        0
      ],
      "name": "Material_4",
      "pbrMetallicRoughness": {
        "baseColorFactor": [
          1,
          1,
          1,
          0.97999999999999998
        ],
        "baseColorTexture": {
          "index": 0,
          "texCoord": 0
        },
        "metallicFactor": 0.12976371950000001,
        "roughnessFactor": 0.1175685976
      }
    },
    {
      "doubleSided": true,
      "emissiveFactor": [
        0,
        0,
        0
      ],
      "name": "default",
      "pbrMetallicRoughness": {
        "baseColorFactor": [
          1,
          0.96421493329999997,
          0.73253298550000001,
          1
        ],
        "metallicFactor": 1,
        "roughnessFactor": 0.21834377069999999
      }
    }
  ],
  "meshes": [
    {
      "name": "Sphere001_Material #4_0",
      "primitives": [
        {
          "attributes": {
            "NORMAL": 1,
            "POSITION": 0,
            "TANGENT": 2,
            "TEXCOORD_0": 3
          },
          "indices": 4,
          "material": 0,
          "mode": 4
        }
      ]
    },
    {
      "name": "Group644_default_0",
      "primitives": [
        {
          "attributes": {
            "NORMAL": 6,
            "POSITION": 5
          },
          "indices": 7,
          "material": 1,
          "mode": 4
        }
      ]
    }
  ],
  "nodes": [
    {
      "children": [
        1
      ],
      "name": "RootNode (gltf orientation matrix)",
      "rotation": [
        -0.70710678118654746,
        -0,
        -0,
        0.70710678118654757
      ]
    },
    {
      "children": [
        2
      ],
      "name": "RootNode (model correction matrix)"
    },
    {
      "children": [
        3
      ],
      "matrix": [
        1,
        0,
        0,
        0,
        0,
        0,
        1,
        0,
        0,
        -1,
        0,
        0,
        0,
        0,
        0,
        1
      ],
      "name": "ce24217f35f94070bfef2fb9bc58def4.fbx"
    },
    {
      "children": [
        4,
        6
      ],
      "name": "RootNode"
    },
    {
      "children": [
        5
      ],
      "matrix": [
        1,
        0,
        0,
        0,
        0,
        2.2204460492503131e-16,
        -1,
        0,
        0,
        1,
        2.2204460492503131e-16,
        0,
        -9.5367431640625e-07,
        -1.9073486328125e-06,
        0,
        1
      ],
      "name": "Sphere001"
    },
    {
      "mesh": 0,
      "name": "Sphere001_Material #4_0"
    },
    {
      "children": [
        7
      ],
      "matrix": [
        1,
        0,
        0,
        0,
        0,
        2.2204460492503131e-16,
        -1,
        0,
        0,
        1,
        2.2204460492503131e-16,
        0,
        0,
        0,
        0,
        1
      ],
      "name": "Group644"
    },
    {
      "mesh": 1,
      "name": "Group644_default_0"
    }
  ],
  "samplers": [
    {
      "magFilter": 9729,
      "minFilter": 9987,
      "wrapS": 10497,
      "wrapT": 10497
    }
  ],
  "scene": 0,
  "scenes": [
    {
      "name": "OSG_Scene",
      "nodes": [
        0
      ]
    }
  ],
  "textures": [
    {
      "sampler": 0,
      "source": 0
    }
  ]
}

